<svg width="3167" height="3366" viewBox="0 0 3167 3366" fill="none" xmlns="http://www.w3.org/2000/svg">
<path d="M1937 441H2131.86C2145.95 441 2159.47 446.705 2169.43 456.859C2179.4 467.014 2185 480.787 2185 495.147V747.834C2185 752.621 2183.13 757.212 2179.81 760.597C2176.49 763.982 2171.98 765.884 2167.29 765.884H2114.14" stroke="#006CA9" stroke-width="30" stroke-linecap="round" stroke-linejoin="round"/>
<path d="M2061 621.491V657.589M1937 441L2071.42 468.399C2083.46 470.852 2094.3 477.481 2102.09 487.159C2109.88 496.836 2114.14 508.965 2114.14 521.481V779.962C2114.14 782.631 2113.56 785.267 2112.44 787.679C2111.32 790.091 2109.68 792.22 2107.66 793.912C2105.63 795.604 2103.26 796.816 2100.72 797.463C2098.18 798.109 2095.53 798.173 2092.96 797.65L1965.48 771.695C1957.45 770.059 1950.22 765.636 1945.03 759.179C1939.83 752.723 1937 744.631 1937 736.283V441Z" stroke="#006CA9" stroke-width="30" stroke-linecap="round" stroke-linejoin="round"/>
<path d="M437 441H631.857C645.951 441 659.469 446.705 669.435 456.859C679.401 467.014 685 480.787 685 495.147V747.834C685 752.621 683.134 757.212 679.812 760.597C676.49 763.982 671.984 765.884 667.286 765.884H614.143" stroke="#006CA9" stroke-width="30" stroke-linecap="round" stroke-linejoin="round"/>
<path d="M561 621.491V657.589M437 441L571.416 468.399C583.462 470.852 594.301 477.481 602.091 487.159C609.881 496.836 614.14 508.965 614.143 521.481V779.962C614.141 782.631 613.559 785.267 612.437 787.679C611.315 790.091 609.682 792.22 607.656 793.912C605.63 795.604 603.26 796.816 600.718 797.463C598.176 798.109 595.526 798.173 592.957 797.65L465.485 771.695C457.45 770.059 450.221 765.636 445.027 759.179C439.833 752.723 436.997 744.631 437 736.283V441Z" stroke="#006CA9" stroke-width="30" stroke-linecap="round" stroke-linejoin="round"/>
<path d="M437 2441H631.857C645.951 2441 659.469 2446.7 669.435 2456.86C679.401 2467.01 685 2480.79 685 2495.15V2747.83C685 2752.62 683.134 2757.21 679.812 2760.6C676.49 2763.98 671.984 2765.88 667.286 2765.88H614.143" stroke="#006CA9" stroke-width="30" stroke-linecap="round" stroke-linejoin="round"/>
<path d="M561 2621.49V2657.59M437 2441L571.416 2468.4C583.462 2470.85 594.301 2477.48 602.091 2487.16C609.881 2496.84 614.14 2508.96 614.143 2521.48V2779.96C614.141 2782.63 613.559 2785.27 612.437 2787.68C611.315 2790.09 609.682 2792.22 607.656 2793.91C605.63 2795.6 603.26 2796.82 600.718 2797.46C598.176 2798.11 595.526 2798.17 592.957 2797.65L465.485 2771.7C457.45 2770.06 450.221 2765.64 445.027 2759.18C439.833 2752.72 436.997 2744.63 437 2736.28V2441Z" stroke="#006CA9" stroke-width="30" stroke-linecap="round" stroke-linejoin="round"/>
<path d="M1937 2441H2131.86C2145.95 2441 2159.47 2446.7 2169.43 2456.86C2179.4 2467.01 2185 2480.79 2185 2495.15V2747.83C2185 2752.62 2183.13 2757.21 2179.81 2760.6C2176.49 2763.98 2171.98 2765.88 2167.29 2765.88H2114.14" stroke="#006CA9" stroke-width="30" stroke-linecap="round" stroke-linejoin="round"/>
<path d="M2061 2621.49V2657.59M1937 2441L2071.42 2468.4C2083.46 2470.85 2094.3 2477.48 2102.09 2487.16C2109.88 2496.84 2114.14 2508.96 2114.14 2521.48V2779.96C2114.14 2782.63 2113.56 2785.27 2112.44 2787.68C2111.32 2790.09 2109.68 2792.22 2107.66 2793.91C2105.63 2795.6 2103.26 2796.82 2100.72 2797.46C2098.18 2798.11 2095.53 2798.17 2092.96 2797.65L1965.48 2771.7C1957.45 2770.06 1950.22 2765.64 1945.03 2759.18C1939.83 2752.72 1937 2744.63 1937 2736.28V2441Z" stroke="#006CA9" stroke-width="30" stroke-linecap="round" stroke-linejoin="round"/>
<path d="M1561 1444C1544.2 1444 1522.09 1453.26 1504.75 1467.07C1496.08 1473.97 1488.59 1482 1483.46 1490.17C1478.34 1498.33 1475.71 1506.38 1475.71 1513.58C1475.71 1514.38 1476.13 1516.41 1477.75 1519.3C1479.37 1522.2 1482.02 1525.74 1485.38 1529.55C1492.11 1537.16 1501.65 1545.94 1511.86 1555.57C1529.62 1572.33 1549.52 1591.41 1561 1614.79C1572.48 1591.41 1592.38 1572.33 1610.14 1555.57C1620.35 1545.94 1629.89 1537.16 1636.62 1529.55C1639.98 1525.74 1642.63 1522.2 1644.25 1519.3C1645.87 1516.41 1646.29 1514.38 1646.29 1513.58C1646.29 1506.38 1643.66 1498.33 1638.54 1490.17C1633.41 1482 1625.92 1473.97 1617.25 1467.07C1599.91 1453.26 1577.8 1444 1561 1444ZM1506.78 1487.98C1515.81 1487.98 1551.96 1526.37 1551.96 1551.96C1524.04 1526.25 1506.78 1526.37 1506.78 1526.37C1497.74 1513.58 1497.74 1487.98 1506.78 1487.98ZM1615.22 1487.98C1624.26 1487.98 1624.26 1513.58 1615.22 1526.37C1615.22 1526.37 1597.96 1526.25 1570.04 1551.96C1570.04 1526.37 1606.19 1487.98 1615.22 1487.98ZM1486.66 1590.59C1485.95 1590.59 1485.25 1590.62 1484.55 1590.68C1484.37 1590.69 1484.19 1590.72 1484.01 1590.74C1486.62 1593.49 1488.87 1596.92 1490.67 1600.75C1494.74 1609.38 1496.74 1620.21 1495.72 1631.08C1494.96 1639.11 1492.42 1647.12 1487.97 1653.78C1488.95 1655.31 1489.86 1657.03 1490.79 1658.93C1494.79 1667.07 1498.78 1678.69 1502.79 1691.92C1503.47 1694.16 1504.14 1696.44 1504.81 1698.75C1510.83 1693.43 1517.58 1690.01 1524.84 1690.33C1525.94 1690.38 1527.04 1690.51 1528.13 1690.73C1535.24 1692.15 1542.47 1697.09 1549.97 1705.96C1550.73 1704.21 1551.48 1702.43 1552.21 1700.65C1549.74 1687.8 1545.66 1672.97 1540.6 1658.57C1530.01 1628.49 1514.29 1600.69 1502.93 1594.95C1497.04 1591.97 1491.64 1590.59 1486.66 1590.59ZM1635.34 1590.59C1630.36 1590.59 1624.96 1591.97 1619.07 1594.95C1607.71 1600.69 1591.99 1628.49 1581.4 1658.57C1576.34 1672.97 1572.26 1687.8 1569.79 1700.65C1570.5 1702.4 1571.26 1704.18 1572.03 1705.96C1579.53 1697.09 1586.76 1692.15 1593.87 1690.73C1594.98 1690.51 1596.07 1690.38 1597.16 1690.33C1604.42 1690.01 1611.17 1693.43 1617.19 1698.75C1617.86 1696.44 1618.53 1694.16 1619.21 1691.92C1623.22 1678.69 1627.21 1667.07 1631.21 1658.93C1632.14 1657.03 1633.05 1655.31 1634.03 1653.78C1629.58 1647.12 1627.04 1639.11 1626.28 1631.08C1625.26 1620.21 1627.26 1609.38 1631.33 1600.75C1633.13 1596.92 1635.38 1593.49 1637.99 1590.74C1637.81 1590.72 1637.63 1590.69 1637.45 1590.68C1636.74 1590.62 1636.04 1590.59 1635.34 1590.59H1635.34ZM1469.82 1598.36C1469.04 1598.37 1468.26 1598.47 1467.49 1598.67C1465.15 1600.81 1462.92 1603.34 1460.79 1606.21C1449.98 1620.8 1442.26 1645.14 1438.91 1672.5C1435.57 1699.86 1436.56 1730.09 1442.24 1755.98C1446.15 1773.8 1452.27 1789.35 1460.51 1801C1456.29 1780.62 1453.4 1757.77 1453.33 1735.17C1453.22 1703.88 1458.5 1672.73 1473.82 1650.91C1474.71 1649.64 1475.91 1648.57 1477.23 1647.95C1482.59 1642.69 1484.99 1636.13 1485.64 1629.18C1486.31 1622.07 1484.93 1614.5 1482.21 1608.74C1479.5 1602.97 1475.65 1599.21 1471.44 1598.49C1470.91 1598.41 1470.37 1598.36 1469.82 1598.36ZM1652.18 1598.36C1651.64 1598.36 1651.1 1598.4 1650.56 1598.49C1646.35 1599.21 1642.5 1602.97 1639.79 1608.74C1637.07 1614.5 1635.69 1622.07 1636.36 1629.18C1637.02 1636.13 1639.41 1642.69 1644.77 1647.95C1646.09 1648.57 1647.29 1649.64 1648.18 1650.91C1663.5 1672.73 1668.78 1703.88 1668.67 1735.17C1668.6 1757.77 1665.71 1780.62 1661.49 1801C1669.73 1789.35 1675.85 1773.8 1679.76 1755.98C1685.44 1730.09 1686.43 1699.86 1683.09 1672.5C1679.74 1645.14 1672.02 1620.8 1661.21 1606.21C1659.08 1603.34 1656.85 1600.81 1654.51 1598.67C1653.74 1598.47 1652.97 1598.37 1652.18 1598.36ZM1542.67 1607.02L1540.03 1627.55C1543.5 1635.4 1546.73 1643.73 1549.69 1652.15C1554.41 1665.53 1558.3 1679.21 1561 1691.86C1563.7 1679.21 1567.59 1665.53 1572.3 1652.15C1575.27 1643.73 1578.5 1635.4 1581.97 1627.55L1579.33 1607.02C1573.37 1615.19 1568.52 1623.55 1565.55 1631.95L1561 1644.83L1556.45 1631.95C1553.48 1623.55 1548.63 1615.18 1542.67 1607.02L1542.67 1607.02ZM1523.39 1704.69C1523.03 1704.69 1522.66 1704.72 1522.3 1704.75C1517.99 1705.18 1513.88 1707.55 1509.55 1711.54C1499.09 1721.18 1493.14 1735.11 1490.61 1753.33C1488.73 1766.88 1488.89 1782.78 1490.9 1800.27C1494.94 1789.01 1499.24 1775.87 1503.43 1764.39C1506.69 1755.44 1509.8 1747.61 1513.3 1742.03C1515.05 1739.24 1516.91 1736.78 1519.72 1735.56C1522.52 1734.35 1526.32 1735.8 1528.44 1738.8L1536.98 1750.89C1538.15 1749.2 1540.08 1744.61 1541.64 1739.46C1543.94 1731.86 1545.4 1724.8 1546.21 1720.65C1538.64 1710.71 1532.18 1706.08 1526.71 1704.98C1525.61 1704.76 1524.5 1704.66 1523.39 1704.69ZM1598.61 1704.69C1597.5 1704.66 1596.39 1704.76 1595.29 1704.98C1589.82 1706.08 1583.36 1710.71 1575.79 1720.65C1576.6 1724.8 1578.06 1731.86 1580.36 1739.46C1581.92 1744.61 1583.85 1749.2 1585.02 1750.89L1593.56 1738.8C1595.68 1735.8 1599.48 1734.35 1602.28 1735.56C1605.09 1736.78 1606.95 1739.24 1608.7 1742.03C1612.2 1747.61 1615.31 1755.44 1618.57 1764.39C1622.76 1775.87 1627.06 1789.01 1631.1 1800.27C1633.11 1782.78 1633.27 1766.88 1631.39 1753.33C1628.86 1735.11 1622.91 1721.18 1612.45 1711.54C1608.12 1707.55 1604.01 1705.18 1599.7 1704.75C1599.33 1704.72 1598.97 1704.7 1598.61 1704.69ZM1561 1707.85C1559.89 1710.61 1558.73 1713.33 1557.54 1716.02L1557.59 1716.09L1556.89 1720.05C1556.89 1720.05 1554.61 1733.17 1550.99 1745.13C1549.18 1751.11 1547.2 1756.82 1544.12 1761.18C1542.58 1763.36 1540.58 1765.43 1537.82 1765.87C1535.07 1766.3 1532.17 1764.44 1530.29 1761.78L1528.49 1759.22C1526.66 1760.53 1524.78 1761.61 1522.84 1762.38C1523.32 1763.56 1523.85 1764.7 1524.42 1765.8C1526.96 1770.67 1530.71 1776.37 1534.98 1781.66C1543.52 1792.24 1554.5 1800.67 1561 1800.67C1567.5 1800.67 1578.48 1792.24 1587.02 1781.66C1591.29 1776.37 1595.04 1770.67 1597.58 1765.8C1598.15 1764.7 1598.68 1763.56 1599.16 1762.38C1597.22 1761.61 1595.34 1760.53 1593.51 1759.22L1591.71 1761.78C1589.83 1764.44 1586.93 1766.3 1584.18 1765.87C1581.42 1765.43 1579.42 1763.36 1577.88 1761.18C1574.8 1756.82 1572.82 1751.11 1571.01 1745.13C1567.39 1733.17 1565.11 1720.05 1565.11 1720.05L1564.41 1716.09L1564.46 1716.02C1563.27 1713.33 1562.11 1710.61 1561 1707.85Z" fill="#006CA9"/>
<path d="M1029 2441C1012.2 2441 990.088 2450.26 972.749 2464.07C964.08 2470.97 956.59 2479 951.464 2487.17C946.337 2495.33 943.71 2503.38 943.71 2510.58C943.71 2511.38 944.134 2513.41 945.755 2516.3C947.374 2519.2 950.019 2522.74 953.382 2526.55C960.107 2534.16 969.652 2542.94 979.856 2552.57C997.616 2569.33 1017.52 2588.41 1029 2611.79C1040.48 2588.41 1060.38 2569.33 1078.14 2552.57C1088.35 2542.94 1097.89 2534.16 1104.62 2526.55C1107.98 2522.74 1110.63 2519.2 1112.25 2516.3C1113.87 2513.41 1114.29 2511.38 1114.29 2510.58C1114.29 2503.38 1111.66 2495.33 1106.54 2487.17C1101.41 2479 1093.92 2470.97 1085.25 2464.07C1067.91 2450.26 1045.8 2441 1029 2441ZM974.776 2484.98C983.813 2484.98 1019.96 2523.37 1019.96 2548.96C992.045 2523.25 974.776 2523.37 974.776 2523.37C965.739 2510.58 965.739 2484.98 974.776 2484.98ZM1083.22 2484.98C1092.26 2484.98 1092.26 2510.58 1083.22 2523.37C1083.22 2523.37 1065.96 2523.25 1038.04 2548.96C1038.04 2523.37 1074.19 2484.98 1083.22 2484.98ZM954.662 2587.59C953.951 2587.59 953.248 2587.62 952.555 2587.68C952.371 2587.69 952.191 2587.72 952.008 2587.74C954.619 2590.49 956.869 2593.92 958.672 2597.75C962.736 2606.38 964.742 2617.21 963.718 2628.08C962.962 2636.11 960.423 2644.12 955.971 2650.78C956.952 2652.31 957.86 2654.03 958.79 2655.93C962.788 2664.07 966.779 2675.69 970.788 2688.92C971.466 2691.16 972.141 2693.44 972.813 2695.75C978.828 2690.43 985.577 2687.01 992.841 2687.33C993.941 2687.38 995.038 2687.51 996.128 2687.73C1003.24 2689.15 1010.47 2694.09 1017.97 2702.96C1018.73 2701.21 1019.48 2699.43 1020.21 2697.65C1017.74 2684.8 1013.66 2669.97 1008.6 2655.57C998.007 2625.49 982.287 2597.69 970.928 2591.95C965.036 2588.97 959.637 2587.59 954.662 2587.59ZM1103.34 2587.59C1098.36 2587.59 1092.96 2588.97 1087.07 2591.95C1075.71 2597.69 1059.99 2625.49 1049.4 2655.57C1044.34 2669.97 1040.26 2684.8 1037.79 2697.65C1038.5 2699.4 1039.26 2701.18 1040.03 2702.96C1047.53 2694.09 1054.76 2689.15 1061.87 2687.73C1062.98 2687.51 1064.07 2687.38 1065.16 2687.33C1072.42 2687.01 1079.17 2690.43 1085.19 2695.75C1085.86 2693.44 1086.53 2691.16 1087.21 2688.92C1091.22 2675.69 1095.21 2664.07 1099.21 2655.93C1100.14 2654.03 1101.05 2652.31 1102.03 2650.78C1097.58 2644.12 1095.04 2636.11 1094.28 2628.08C1093.26 2617.21 1095.26 2606.38 1099.33 2597.75C1101.13 2593.92 1103.38 2590.49 1105.99 2587.74C1105.81 2587.72 1105.63 2587.69 1105.45 2587.68C1104.74 2587.62 1104.04 2587.59 1103.34 2587.59H1103.34ZM937.816 2595.36C937.035 2595.37 936.256 2595.47 935.489 2595.67C933.147 2597.81 930.92 2600.34 928.792 2603.21C917.98 2617.8 910.256 2642.14 906.914 2669.5C903.571 2696.86 904.562 2727.09 910.243 2752.98C914.152 2770.8 920.271 2786.35 928.514 2798C924.288 2777.62 921.404 2754.77 921.325 2732.17C921.217 2700.88 926.497 2669.73 941.824 2647.91C942.71 2646.64 943.914 2645.57 945.23 2644.95C950.591 2639.69 952.985 2633.13 953.639 2626.18C954.309 2619.07 952.927 2611.5 950.213 2605.74C947.498 2599.97 943.653 2596.21 939.438 2595.49C938.911 2595.41 938.37 2595.36 937.816 2595.36ZM1120.18 2595.36C1119.64 2595.36 1119.1 2595.4 1118.56 2595.49C1114.35 2596.21 1110.5 2599.97 1107.79 2605.74C1105.07 2611.5 1103.69 2619.07 1104.36 2626.18C1105.02 2633.13 1107.41 2639.69 1112.77 2644.95C1114.09 2645.57 1115.29 2646.64 1116.18 2647.91C1131.5 2669.73 1136.78 2700.88 1136.67 2732.17C1136.6 2754.77 1133.71 2777.62 1129.49 2798C1137.73 2786.35 1143.85 2770.8 1147.76 2752.98C1153.44 2727.09 1154.43 2696.86 1151.09 2669.5C1147.74 2642.14 1140.02 2617.8 1129.21 2603.21C1127.08 2600.34 1124.85 2597.81 1122.51 2595.67C1121.74 2595.47 1120.97 2595.37 1120.18 2595.36ZM1010.67 2604.02L1008.03 2624.55C1011.5 2632.4 1014.73 2640.73 1017.69 2649.15C1022.41 2662.53 1026.3 2676.21 1029 2688.86C1031.7 2676.21 1035.59 2662.53 1040.3 2649.15C1043.27 2640.73 1046.5 2632.4 1049.97 2624.55L1047.33 2604.02C1041.37 2612.19 1036.52 2620.55 1033.55 2628.95L1029 2641.83L1024.45 2628.95C1021.48 2620.55 1016.63 2612.18 1010.67 2604.02L1010.67 2604.02ZM991.389 2701.69C991.026 2701.69 990.664 2701.72 990.304 2701.75C985.986 2702.18 981.876 2704.55 977.551 2708.54C967.094 2718.18 961.144 2732.11 958.611 2750.33C956.728 2763.88 956.892 2779.78 958.903 2797.27C962.942 2786.01 967.243 2772.87 971.429 2761.39C974.691 2752.44 977.796 2744.61 981.302 2739.03C983.054 2736.24 984.906 2733.78 987.715 2732.56C990.525 2731.35 994.325 2732.8 996.445 2735.8L1004.98 2747.89C1006.15 2746.2 1008.08 2741.61 1009.64 2736.46C1011.94 2728.86 1013.4 2721.8 1014.21 2717.65C1006.64 2707.71 1000.18 2703.08 994.707 2701.98C993.608 2701.76 992.499 2701.66 991.389 2701.69ZM1066.61 2701.69C1065.5 2701.66 1064.39 2701.76 1063.29 2701.98C1057.82 2703.08 1051.36 2707.71 1043.79 2717.65C1044.6 2721.8 1046.06 2728.86 1048.36 2736.46C1049.92 2741.61 1051.85 2746.2 1053.02 2747.89L1061.56 2735.8C1063.68 2732.8 1067.48 2731.35 1070.28 2732.56C1073.09 2733.78 1074.95 2736.24 1076.7 2739.03C1080.2 2744.61 1083.31 2752.44 1086.57 2761.39C1090.76 2772.87 1095.06 2786.01 1099.1 2797.27C1101.11 2779.78 1101.27 2763.88 1099.39 2750.33C1096.86 2732.11 1090.91 2718.18 1080.45 2708.54C1076.12 2704.55 1072.01 2702.18 1067.7 2701.75C1067.33 2701.72 1066.97 2701.7 1066.61 2701.69ZM1029 2704.85C1027.89 2707.61 1026.73 2710.33 1025.54 2713.02L1025.59 2713.09L1024.89 2717.05C1024.89 2717.05 1022.61 2730.17 1018.99 2742.13C1017.18 2748.11 1015.2 2753.82 1012.12 2758.18C1010.58 2760.36 1008.58 2762.43 1005.82 2762.87C1003.07 2763.3 1000.17 2761.44 998.294 2758.78L996.487 2756.22C994.656 2757.53 992.778 2758.61 990.845 2759.38C991.322 2760.56 991.847 2761.7 992.417 2762.8C994.963 2767.67 998.705 2773.37 1002.98 2778.66C1011.52 2789.24 1022.5 2797.67 1029 2797.67C1035.5 2797.67 1046.48 2789.24 1055.02 2778.66C1059.29 2773.37 1063.04 2767.67 1065.58 2762.8C1066.15 2761.7 1066.68 2760.56 1067.16 2759.38C1065.22 2758.61 1063.34 2757.53 1061.51 2756.22L1059.71 2758.78C1057.83 2761.44 1054.93 2763.3 1052.18 2762.87C1049.42 2762.43 1047.42 2760.36 1045.88 2758.18C1042.8 2753.82 1040.82 2748.11 1039.01 2742.13C1035.39 2730.17 1033.11 2717.05 1033.11 2717.05L1032.41 2713.09L1032.46 2713.02C1031.27 2710.33 1030.11 2707.61 1029 2704.85Z" fill="#006CA9"/>
<path d="M2061 1483C2055.52 1483 2050.26 1480.79 2046.39 1476.85C2042.51 1472.91 2040.33 1467.57 2040.33 1462C2040.33 1456.43 2042.51 1451.09 2046.39 1447.15C2050.26 1443.21 2055.52 1441 2061 1441C2066.48 1441 2071.74 1443.21 2075.61 1447.15C2079.49 1451.09 2081.67 1456.43 2081.67 1462C2081.67 1467.57 2079.49 1472.91 2075.61 1476.85C2071.74 1480.79 2066.48 1483 2061 1483ZM2061 1483V1504M2061 1504C1992.12 1525 1957.67 1573.99 1957.67 1651C1957.67 1678.95 1974.88 1714 2009.33 1714H2112.67H2116.28C2148.32 1711.5 2164.33 1677.96 2164.33 1651C2164.33 1575.97 2129.88 1525 2061 1504ZM2123 1546L2061 1609M1978.33 1714L1948.43 1729.2C1945 1730.95 1942.11 1733.63 1940.09 1736.94C1938.07 1740.26 1937 1744.08 1937 1747.98V1798H2185V1747.98C2185 1744.08 2183.93 1740.26 2181.91 1736.94C2179.89 1733.63 2177 1730.95 2173.57 1729.2L2143.67 1714H1978.33Z" stroke="#006CA9" stroke-width="30" stroke-linecap="round" stroke-linejoin="round"/>
<path d="M2507.49 1568.4V1663H2462.11V1499.36H2505.36V1528.23H2507.28C2510.9 1518.72 2516.98 1511.19 2525.5 1505.65C2534.02 1500.04 2544.36 1497.23 2556.5 1497.23C2567.86 1497.23 2577.77 1499.72 2586.22 1504.69C2594.67 1509.66 2601.24 1516.76 2605.93 1526C2610.62 1535.16 2612.96 1546.1 2612.96 1558.81V1663H2567.58V1566.91C2567.65 1556.89 2565.09 1549.08 2559.91 1543.47C2554.72 1537.79 2547.59 1534.95 2538.5 1534.95C2532.39 1534.95 2526.99 1536.26 2522.3 1538.89C2517.69 1541.52 2514.06 1545.35 2511.44 1550.39C2508.88 1555.37 2507.57 1561.37 2507.49 1568.4ZM2728.39 1537.5V1499.58H2875.52V1537.5H2728.39ZM2728.39 1608.24V1570.32H2875.52V1608.24H2728.39ZM3070.77 1665.98C3055.71 1665.98 3042.29 1663.21 3030.5 1657.67C3018.78 1652.13 3009.47 1644.5 3002.58 1634.77C2995.7 1625.04 2992.11 1613.89 2991.82 1601.32H3036.57C3037.07 1609.77 3040.62 1616.62 3047.22 1621.88C3053.83 1627.13 3061.68 1629.76 3070.77 1629.76C3078.01 1629.76 3084.4 1628.16 3089.94 1624.97C3095.55 1621.7 3099.92 1617.19 3103.05 1611.44C3106.24 1605.61 3107.84 1598.94 3107.84 1591.41C3107.84 1583.74 3106.21 1576.99 3102.94 1571.17C3099.74 1565.34 3095.31 1560.8 3089.62 1557.53C3083.94 1554.26 3077.44 1552.6 3070.13 1552.52C3063.74 1552.52 3057.52 1553.84 3051.48 1556.47C3045.52 1559.09 3040.87 1562.68 3037.53 1567.23L2996.51 1559.88L3006.85 1444.82H3140.23V1482.53H3044.88L3039.23 1537.18H3040.51C3044.35 1531.79 3050.13 1527.31 3057.88 1523.76C3065.62 1520.21 3074.28 1518.43 3083.87 1518.43C3097.01 1518.43 3108.73 1521.52 3119.03 1527.7C3129.32 1533.88 3137.46 1542.37 3143.42 1553.16C3149.39 1563.89 3152.34 1576.25 3152.27 1590.24C3152.34 1604.94 3148.93 1618.01 3142.04 1629.44C3135.22 1640.81 3125.67 1649.75 3113.38 1656.29C3101.16 1662.75 3086.96 1665.98 3070.77 1665.98Z" fill="#006CA9"/>
<path d="M883.111 3294V3130.36H926.364V3159.23H928.281C931.69 3149.65 937.372 3142.08 945.327 3136.54C953.281 3131 962.798 3128.23 973.878 3128.23C985.099 3128.23 994.652 3131.04 1002.54 3136.65C1010.42 3142.19 1015.67 3149.72 1018.3 3159.23H1020.01C1023.35 3149.86 1029.38 3142.37 1038.12 3136.76C1046.92 3131.07 1057.33 3128.23 1069.33 3128.23C1084.6 3128.23 1097 3133.1 1106.51 3142.83C1116.1 3152.49 1120.89 3166.19 1120.89 3183.95V3294H1075.62V3192.9C1075.62 3183.81 1073.2 3176.99 1068.37 3172.44C1063.54 3167.9 1057.51 3165.63 1050.26 3165.63C1042.02 3165.63 1035.6 3168.25 1030.98 3173.51C1026.36 3178.69 1024.06 3185.55 1024.06 3194.07V3294H980.057V3191.94C980.057 3183.91 977.749 3177.52 973.132 3172.76C968.587 3168.01 962.585 3165.63 955.128 3165.63C950.085 3165.63 945.54 3166.9 941.491 3169.46C937.514 3171.95 934.354 3175.46 932.01 3180.01C929.666 3184.48 928.494 3189.74 928.494 3195.78V3294H883.111ZM1236.4 3168.5V3130.58H1383.53V3168.5H1236.4ZM1236.4 3239.24V3201.32H1383.53V3239.24H1236.4ZM1495.79 3255.65V3219.32L1586.88 3075.82H1618.2V3126.1H1599.66L1542.24 3216.98V3218.68H1671.68V3255.65H1495.79ZM1600.51 3294V3244.57L1601.36 3228.48V3075.82H1644.62V3294H1600.51Z" fill="#006CA9"/>
<path d="M519.688 293.983C503.636 293.983 490.71 289.615 480.909 280.879C471.108 272.072 464.645 259.324 461.52 242.634C458.395 225.872 458.75 205.631 462.585 181.909C466.42 158.33 472.706 138.195 481.442 121.504C490.178 104.743 500.938 91.9588 513.722 83.152C526.506 74.2741 540.852 69.8352 556.761 69.8352C572.67 69.8352 585.561 74.2741 595.433 83.152C605.376 92.0298 611.982 104.814 615.249 121.504C618.587 138.195 618.267 158.33 614.29 181.909C610.313 205.631 603.956 225.837 595.22 242.527C586.484 259.217 575.724 271.966 562.94 280.773C550.156 289.58 535.739 293.983 519.688 293.983ZM523.523 270.545C539.503 270.545 553.175 262.875 564.538 247.534C575.973 232.122 584.034 210.247 588.722 181.909C591.847 163.017 592.486 146.93 590.639 133.649C588.793 120.368 584.673 110.247 578.281 103.287C571.889 96.3267 563.438 92.8466 552.926 92.8466C537.159 92.8466 523.594 100.624 512.23 116.178C500.866 131.661 492.841 153.571 488.153 181.909C485.028 200.801 484.354 216.852 486.129 230.062C487.905 243.273 491.953 253.322 498.274 260.212C504.595 267.101 513.011 270.545 523.523 270.545ZM1086.88 72.8182L1050.65 291H1024.23L1055.77 100.517H1054.49L995.256 135.886L999.943 109.04L1060.45 72.8182H1086.88ZM1450.9 291L1454.31 271.824L1539.11 192.989C1549.06 183.756 1557.33 175.695 1563.93 168.805C1570.61 161.916 1575.8 155.453 1579.49 149.416C1583.25 143.379 1585.7 137.023 1586.84 130.347C1588.12 122.676 1587.44 116.036 1584.82 110.425C1582.19 104.814 1578.03 100.482 1572.35 97.4276C1566.67 94.3736 1559.85 92.8466 1551.9 92.8466C1543.52 92.8466 1535.88 94.5866 1528.99 98.0668C1522.1 101.476 1516.38 106.305 1511.84 112.555C1507.29 118.734 1504.31 125.943 1502.89 134.182H1477.75C1479.88 121.398 1484.74 110.176 1492.34 100.517C1500.01 90.8579 1509.42 83.3295 1520.58 77.9318C1531.8 72.5341 1543.8 69.8352 1556.58 69.8352C1569.37 69.8352 1580.2 72.5341 1589.08 77.9318C1597.95 83.3295 1604.38 90.6094 1608.36 99.7713C1612.34 108.933 1613.4 119.125 1611.56 130.347C1610.13 138.443 1607.33 146.291 1603.14 153.891C1598.95 161.49 1592.52 169.977 1583.86 179.352C1575.26 188.656 1563.62 200.02 1548.91 213.443L1491.38 265.858L1490.96 267.562H1592.38L1588.54 291H1450.9ZM2044.62 293.983C2030.41 293.983 2018.09 291.604 2007.65 286.845C1997.28 282.016 1989.54 275.304 1984.42 266.71C1979.31 258.045 1977.5 247.96 1978.99 236.455H2005.41C2004.77 243.415 2005.98 249.452 2009.03 254.565C2012.16 259.679 2016.78 263.621 2022.88 266.391C2029.06 269.161 2036.45 270.545 2045.04 270.545C2054.2 270.545 2062.8 268.947 2070.82 265.751C2078.92 262.555 2085.7 257.939 2091.17 251.902C2096.64 245.794 2100.01 238.514 2101.29 230.062C2102.43 222.463 2101.58 215.716 2098.74 209.821C2095.89 203.926 2090.99 199.31 2084.03 195.972C2077.14 192.562 2068.13 190.858 2056.97 190.858H2039.08L2042.91 167.42H2059.53C2068.2 167.42 2076.15 165.787 2083.39 162.52C2090.64 159.253 2096.68 154.672 2101.51 148.777C2106.34 142.811 2109.39 135.815 2110.67 127.79C2111.88 120.759 2111.38 114.651 2109.18 109.466C2107.05 104.21 2103.35 100.126 2098.1 97.2145C2092.91 94.3026 2086.31 92.8466 2078.28 92.8466C2070.61 92.8466 2063.08 94.2315 2055.7 97.0014C2048.38 99.7003 2042.13 103.642 2036.95 108.827C2031.76 113.94 2028.49 120.119 2027.14 127.364H2001.58C2003.78 116 2008.71 106.021 2016.38 97.4276C2024.06 88.7628 2033.39 82.0156 2044.4 77.1861C2055.48 72.2855 2067.2 69.8352 2079.56 69.8352C2093.27 69.8352 2104.56 72.6761 2113.44 78.358C2122.39 83.9687 2128.78 91.3551 2132.61 100.517C2136.45 109.608 2137.51 119.409 2135.81 129.92C2133.89 141.923 2128.96 152.08 2121 160.389C2113.05 168.699 2103.35 174.594 2091.92 178.074V179.352C2105.34 181.696 2115.07 187.875 2121.11 197.889C2127.22 207.832 2129.13 219.693 2126.86 233.472C2124.87 245.83 2120.08 256.554 2112.48 265.645C2104.88 274.665 2095.26 281.661 2083.61 286.632C2071.96 291.533 2058.96 293.983 2044.62 293.983ZM2291.88 127.364L2320.01 194.267L2370.29 127.364H2399.27L2332.79 209.182L2372 291H2343.02L2314.47 227.506L2264.61 291H2235.63L2301.26 209.182L2262.9 127.364H2291.88Z" fill="#737370"/>
<path d="M82.6875 728.983C66.6364 728.983 53.7102 724.615 43.9091 715.879C34.108 707.072 27.6449 694.324 24.5199 677.634C21.3949 660.872 21.75 640.631 25.5852 616.909C29.4205 593.33 35.706 573.195 44.4418 556.504C53.1776 539.743 63.9375 526.959 76.7216 518.152C89.5057 509.274 103.852 504.835 119.761 504.835C135.67 504.835 148.561 509.274 158.433 518.152C168.376 527.03 174.982 539.814 178.249 556.504C181.587 573.195 181.267 593.33 177.29 616.909C173.313 640.631 166.956 660.837 158.22 677.527C149.484 694.217 138.724 706.966 125.94 715.773C113.156 724.58 98.7386 728.983 82.6875 728.983ZM86.5227 705.545C102.503 705.545 116.175 697.875 127.538 682.534C138.973 667.122 147.034 645.247 151.722 616.909C154.847 598.017 155.486 581.93 153.639 568.649C151.793 555.368 147.673 545.247 141.281 538.287C134.889 531.327 126.438 527.847 115.926 527.847C100.159 527.847 86.5938 535.624 75.2301 551.178C63.8665 566.661 55.8409 588.571 51.1534 616.909C48.0284 635.801 47.3537 651.852 49.1293 665.062C50.9048 678.273 54.9531 688.322 61.2742 695.212C67.5952 702.101 76.0114 705.545 86.5227 705.545Z" fill="#737370"/>
<path d="M18.554 3118.36C14.2926 3118.36 10.5284 3118.01 7.26136 3117.3C4.06534 3116.66 1.86364 3116.02 0.65625 3115.38L10.8835 3093.22C16.7074 3094.78 21.892 3095.25 26.4375 3094.61C31.054 3094.04 35.4219 3091.8 39.5412 3087.89C43.7315 3084.06 48.0994 3078.02 52.6449 3069.78L59.6761 3057L26.8636 2893.36H53.071L76.5085 3024.19H78.2131L145.116 2893.36H173.455L73.0994 3080.65C68.4119 3089.39 63.2628 3096.52 57.652 3102.06C52.0412 3107.6 45.9688 3111.69 39.4347 3114.32C32.9006 3117.01 25.9403 3118.36 18.554 3118.36Z" fill="#737370"/>
<path d="M14.5057 2667.26L17.9148 2645.52L138.938 2493.82H154.705L149.165 2527.48H138.511L46.892 2642.11V2643.82H176.011L172.176 2667.26H14.5057ZM109.534 2712L118.057 2660.44L119.761 2650.64L145.756 2493.82H170.898L134.676 2712H109.534Z" fill="#737370"/>
<path d="M86.5227 2184.98C72.3182 2184.98 59.9957 2182.6 49.5554 2177.85C39.1861 2173.02 31.4446 2166.3 26.331 2157.71C21.2173 2149.05 19.4063 2138.96 20.8977 2127.45H47.3182C46.679 2134.41 47.8864 2140.45 50.9403 2145.57C54.0653 2150.68 58.6818 2154.62 64.7898 2157.39C70.9688 2160.16 78.3551 2161.55 86.9489 2161.55C96.1108 2161.55 104.705 2159.95 112.73 2156.75C120.827 2153.56 127.609 2148.94 133.078 2142.9C138.547 2136.79 141.92 2129.51 143.199 2121.06C144.335 2113.46 143.483 2106.72 140.642 2100.82C137.801 2094.93 132.901 2090.31 125.94 2086.97C119.051 2083.56 110.031 2081.86 98.8807 2081.86H80.983L84.8182 2058.42H101.438C110.102 2058.42 118.057 2056.79 125.301 2053.52C132.545 2050.25 138.582 2045.67 143.412 2039.78C148.241 2033.81 151.295 2026.82 152.574 2018.79C153.781 2011.76 153.284 2005.65 151.082 2000.47C148.952 1995.21 145.259 1991.13 140.003 1988.21C134.818 1985.3 128.213 1983.85 120.188 1983.85C112.517 1983.85 104.989 1985.23 97.6023 1988C90.2869 1990.7 84.0369 1994.64 78.8523 1999.83C73.6676 2004.94 70.4006 2011.12 69.0511 2018.36H43.483C45.6847 2007 50.6207 1997.02 58.2912 1988.43C65.9616 1979.76 75.3011 1973.02 86.3097 1968.19C97.3892 1963.29 109.108 1960.84 121.466 1960.84C135.173 1960.84 146.466 1963.68 155.344 1969.36C164.293 1974.97 170.685 1982.36 174.52 1991.52C178.355 2000.61 179.42 2010.41 177.716 2020.92C175.798 2032.92 170.862 2043.08 162.908 2051.39C154.953 2059.7 145.259 2065.59 133.824 2069.07V2070.35C147.247 2072.7 156.977 2078.88 163.014 2088.89C169.122 2098.83 171.04 2110.69 168.767 2124.47C166.778 2136.83 161.984 2147.55 154.385 2156.64C146.786 2165.66 137.162 2172.66 125.514 2177.63C113.866 2182.53 100.869 2184.98 86.5227 2184.98Z" fill="#737370"/>
<path d="M11.9489 1735L15.358 1715.82L100.159 1636.99C110.102 1627.76 118.376 1619.69 124.982 1612.81C131.658 1605.92 136.842 1599.45 140.536 1593.42C144.3 1587.38 146.75 1581.02 147.886 1574.35C149.165 1566.68 148.49 1560.04 145.862 1554.42C143.234 1548.81 139.08 1544.48 133.398 1541.43C127.716 1538.37 120.898 1536.85 112.943 1536.85C104.563 1536.85 96.9276 1538.59 90.0384 1542.07C83.1491 1545.48 77.4318 1550.31 72.8864 1556.56C68.3409 1562.73 65.358 1569.94 63.9375 1578.18H38.7955C40.9261 1565.4 45.7912 1554.18 53.3906 1544.52C61.0611 1534.86 70.4716 1527.33 81.6222 1521.93C92.8438 1516.53 104.847 1513.84 117.631 1513.84C130.415 1513.84 141.246 1516.53 150.124 1521.93C159.001 1527.33 165.429 1534.61 169.406 1543.77C173.384 1552.93 174.449 1563.12 172.602 1574.35C171.182 1582.44 168.376 1590.29 164.186 1597.89C159.996 1605.49 153.568 1613.98 144.903 1623.35C136.31 1632.66 124.662 1644.02 109.96 1657.44L52.4318 1709.86L52.0057 1711.56H153.426L149.591 1735H11.9489Z" fill="#737370"/>
<path d="M150.875 1011.82L114.653 1230H88.233L119.767 1039.52H118.489L59.2557 1074.89L63.9432 1048.04L124.455 1011.82H150.875Z" fill="#737370"/>
<line x1="306.428" y1="2869.95" x2="306.428" y2="369.945" stroke="#737370" stroke-width="10"/>
<line x1="2311" y1="375" x2="311.428" y2="374.945" stroke="#737370" stroke-width="10"/>
<line x1="2311" y1="2875" x2="311.428" y2="2874.95" stroke="#737370" stroke-width="10"/>
<line x1="2310.57" y1="3008.05" x2="311" y2="3008" stroke="#737370" stroke-width="10"/>
<line x1="2311" y1="2375" x2="311.428" y2="2374.95" stroke="#737370" stroke-width="10"/>
<line x1="2310.57" y1="1875" x2="311" y2="1874.95" stroke="#737370" stroke-width="10"/>
<line x1="2310.57" y1="1375" x2="311" y2="1374.95" stroke="#737370" stroke-width="10"/>
<line x1="2310.57" y1="875" x2="311" y2="874.945" stroke="#737370" stroke-width="10"/>
<line x1="2306" y1="2870" x2="2306" y2="370" stroke="#737370" stroke-width="10"/>
<line x1="2439" y1="2870" x2="2439" y2="370" stroke="#737370" stroke-width="10"/>
<line x1="1806" y1="2870" x2="1806" y2="370" stroke="#737370" stroke-width="10"/>
<line x1="1306" y1="2870" x2="1306" y2="370" stroke="#737370" stroke-width="10"/>
<line x1="806" y1="2870" x2="806" y2="370" stroke="#737370" stroke-width="10"/>
<path d="M1065.47 616.538C1059.94 616.538 1055.47 621.015 1055.47 626.538V716.538C1055.47 722.061 1059.94 726.538 1065.47 726.538C1070.99 726.538 1075.47 722.061 1075.47 716.538V636.538H1155.47C1160.99 636.538 1165.47 632.061 1165.47 626.538C1165.47 621.015 1160.99 616.538 1155.47 616.538H1065.47ZM1947.68 1494.61L1072.54 619.467L1058.39 633.609L1933.54 1508.75L1947.68 1494.61Z" fill="#FA8F00"/>
<path d="M544.125 1138.3C544.125 1143.83 548.602 1148.3 554.125 1148.3H644.125C649.648 1148.3 654.125 1143.83 654.125 1138.3C654.125 1132.78 649.648 1128.3 644.125 1128.3H564.125V1048.3C564.125 1042.78 559.648 1038.3 554.125 1038.3C548.602 1038.3 544.125 1042.78 544.125 1048.3V1138.3ZM561.196 1145.38L1076.38 630.197L1062.23 616.054L547.054 1131.23L561.196 1145.38Z" fill="#FA8F00"/>
<path d="M1871.83 2465.83C1877.35 2465.83 1881.83 2461.35 1881.83 2455.83V2365.83C1881.83 2360.31 1877.35 2355.83 1871.83 2355.83C1866.31 2355.83 1861.83 2360.31 1861.83 2365.83V2445.83H1781.83C1776.31 2445.83 1771.83 2450.31 1771.83 2455.83C1771.83 2461.35 1776.31 2465.83 1781.83 2465.83H1871.83ZM1878.9 2448.76L568.071 1137.93L553.929 1152.07L1864.76 2462.9L1878.9 2448.76Z" fill="#FA8F00"/>
</svg>
